<?xml version="1.0" encoding="UTF-8" standalone="no"?>
<svg xmlns:dc="http://purl.org/dc/elements/1.1/" xmlns:cc="http://creativecommons.org/ns#" xmlns:rdf="http://www.w3.org/1999/02/22-rdf-syntax-ns#" xmlns:svg="http://www.w3.org/2000/svg" xmlns="http://www.w3.org/2000/svg" xmlns:sodipodi="http://sodipodi.sourceforge.net/DTD/sodipodi-0.dtd" xmlns:inkscape="http://www.inkscape.org/namespaces/inkscape" viewBox="0 0 512.00001 512.00001" height="512" width="512" xml:space="preserve" id="svg2" version="1.1" xmlns:inkscape="http://www.inkscape.org/namespaces/inkscape" inkscape:version="0.91 r" xmlns:sodipodi-0.dtd="http://sodipodi.sourceforge.net/DTD/sodipodi-0.dtd" xmlns:sodipodi-0.dtd="http://sodipodi.sourceforge.net/DTD/sodipodi-0.dtd" sodipodi-0.dtd:docname="eustasy-3.2-light.svg" inkscape:export-filename="/media/lewis/External/Documents/eustasy Logos/v3.2 - 2015/48-light.png" inkscape:export-xdpi="8.4399996" inkscape:export-ydpi="8.4399996"><namedview pagecolor="#ffffff" bordercolor="#666666" borderopacity="1" objecttolerance="10" gridtolerance="10" guidetolerance="10" inkscape:pageopacity="0" inkscape:pageshadow="2" inkscape:window-width="1600" inkscape:window-height="845" id="namedview8" showgrid="true" inkscape:zoom="1.4142136" inkscape:cx="170.70838" inkscape:cy="261.64396" inkscape:window-x="0" inkscape:window-y="30" inkscape:window-maximized="1" inkscape:current-layer="g10" fit-margin-top="0" fit-margin-left="0" fit-margin-right="0" fit-margin-bottom="0"></namedview><metadata id="metadata8"><RDF><Work xmlns:_="http://www.w3.org/1999/02/22-rdf-syntax-ns#" xmlns:_="http://www.w3.org/1999/02/22-rdf-syntax-ns#" _:about=""><format>image/svg+xml</format><type _:resource="http://purl.org/dc/dcmitype/StillImage"></type><title></title></Work></RDF></metadata><defs id="defs6"></defs><g transform="matrix(1.3333333,0,0,-1.3333333,-2.4307736e-7,512.00002)" id="g10"><g transform="matrix(0.25620093,0,0,0.25617625,-64.203909,-64.180138)" id="g12" inkscape:export-xdpi="90" inkscape:export-ydpi="90" style="fill:#212121;fill-opacity:1"><path id="path14" style="fill:#dedede;fill-opacity:1;fill-rule:nonzero;stroke:none" d="m 895.5,1742.2 c 145.7,20.6 297.5,-2.6 429.9,-67.1 151.6,-72.5 277,-197.9 349.5,-349.4 68.5,-140.5 90.5,-302.8 63,-456.598 C 1710.2,709.699 1628.6,560.398 1509.8,450.699 1380.4,329.801 1206.9,257.5 1030,251.199 885.602,245 739.699,282.102 615.699,356.602 472.801,441.301 360,575.398 300.602,730.5 230.199,911.199 234.301,1119.3 311.898,1297.1 411.699,1533.5 641,1708.6 895.5,1742.2 m -221,-137.1 C 525.398,1525.4 408.199,1388.6 352.199,1229.1 309.9555,1113.3702 303.90311,987.1776 326.34241,866.53876 336.99687,810.73658 354.42209,808.66515 393.82026,854.66075 481.2348,950.31282 549.46925,1062.1632 620.801,1170 c 65.898,99 150.097,194.8 266.5,233 110.597,43.8 244.099,16.3 331.299,-63.4 50.8,-46 67.7,-117.3 60.5,-183.5 -47.7,6.6 -97.1,11.4 -144,-2.5 C 1017.5,1119.9 924.5,992.602 954,868.898 c 25,-118.699 110.9,-229 228.8,-265.796 70.9052,-22.30702 143.4277,-27.27561 255.9,58.398 112.431,87.61147 246.3807,238.27594 249.5031,351.9873 4.9998,155.2816 -65.2164,301.955 -136.1031,397.6127 -119.4,159.6 -311.1,264 -510.6,273.1 -126.602,11.2 -255.301,-19.6 -367,-79.1 M 989.76114,1369.4368 C 822.13277,1364.7544 724.898,1218.5 663.102,1125.6 618.9005,1057.3 574.75,988.22525 526.28763,922.62538 487.10347,869.58473 445.10042,818.81578 397.97233,772.56483 372.20901,749.16123 366.84294,724.93955 385.71158,691.00137 489.90507,482.15947 706.55196,333.70931 940,315.699 c 159.4,-14.597 323.1,29 454.1,120.801 118.9231,81.36562 209.9575,201.74316 257.8225,337.40177 14.0606,43.24155 3.1656,42.86984 -24.4482,2.17503 C 1575.8839,703.4931 1515.3729,636.77888 1439.6,589.199 1361.2,538.801 1261.8,517.602 1171.1,543.898 1012.8,590.301 897.801,747.699 889.102,910.5 c -4.45991,145.1299 104.75729,256.9351 235.0643,292.8128 37.2206,10.248 71.6209,11.6279 111.0935,6.5135 -24.7397,110.7007 -134.5405,160.2243 -239.65018,159.6129" inkscape:connector-curvature="0" sodipodi-0.dtd:nodetypes="ccccccccccccccccccccccccccccscccccccccscc" inkscape:export-xdpi="90" inkscape:export-ydpi="90"></path></g></g></svg>